# xmcd CD Database Entry
#
# Track frame offsets:
# 150
# 16925
# 37156
# 54529
# 71455
# 88700
# 105391
# 120677
# 139364
# 160167
# 177798
# 192161
# 209622
# 228983
# 247226
# 265085
# 283089
# 298469
# 313171
#
# Disc length: 4447 seconds
#
# Revision: 2
# Processed by: cddbd v1.4PL0 Copyright (c) Steve Scherf et al.
# Submitted via: tcd 2.0b
#
DISCID=26115d13
DTITLE=Ismeretlen - Ismeretlen
DYEAR=1900
DGENRE=
TTITLE0=1. sáv
TTITLE1=2. sáv
TTITLE2=3. sáv
TTITLE3=4. sáv
TTITLE4=5. sáv
TTITLE5=6. sáv
TTITLE6=7. sáv
TTITLE7=8. sáv
TTITLE8=9. sáv
TTITLE9=10. sáv
TTITLE10=11. sáv
TTITLE11=12. sáv
TTITLE12=13. sáv
TTITLE13=14. sáv
TTITLE14=15. sáv
TTITLE15=16. sáv
TTITLE16=17. sáv
TTITLE17=18. sáv
TTITLE18=19. sáv
EXTD=
EXTT0=
EXTT1=
EXTT2=
EXTT3=
EXTT4=
EXTT5=
EXTT6=
EXTT7=
EXTT8=
EXTT9=
EXTT10=
EXTT11=
EXTT12=
EXTT13=
EXTT14=
EXTT15=
EXTT16=
EXTT17=
EXTT18=
PLAYORDER=
